<svg width="437" height="565" viewBox="0 0 437 565" fill="none" xmlns="http://www.w3.org/2000/svg">
<g clip-path="url(#clip0_26_17)">
<path d="M428.745 544.514V296.925C428.745 287.066 420.152 279.074 409.553 279.074H267.558C256.959 279.074 248.366 287.066 248.366 296.925L248.366 544.514C248.366 554.372 256.959 562.364 267.558 562.364H409.553C420.152 562.364 428.745 554.372 428.745 544.514Z" fill="#263238"/>
<path d="M331.993 437.523H338.854C339.607 437.523 340.217 436.958 340.217 436.262C340.217 435.566 339.607 435.001 338.854 435.001H331.993C331.24 435.001 330.629 435.566 330.629 436.262C330.629 436.958 331.24 437.523 331.993 437.523Z" fill="white"/>
<path d="M305.542 405.597C305.533 405.847 305.492 406.096 305.419 406.337V406.337L298.511 428.077C298.393 428.473 298.147 428.826 297.807 429.089C297.475 429.342 297.057 429.479 296.628 429.474C296.19 429.483 295.764 429.341 295.433 429.075C295.112 428.816 294.883 428.473 294.774 428.092V428.092L289.827 411.338L284.926 428.077C284.804 428.465 284.565 428.811 284.237 429.075C283.904 429.333 283.484 429.475 283.05 429.475C282.616 429.475 282.196 429.333 281.863 429.075C281.538 428.817 281.303 428.474 281.189 428.092L274.266 406.295C274.199 406.062 274.163 405.823 274.159 405.582C274.149 405.358 274.188 405.134 274.272 404.924C274.356 404.714 274.484 404.521 274.649 404.357C274.816 404.198 275.016 404.073 275.238 403.99C275.459 403.906 275.697 403.866 275.935 403.873C276.35 403.868 276.754 403.993 277.082 404.228C277.41 404.464 277.643 404.795 277.743 405.169V405.169L283.027 422.379L288.035 405.71C288.145 405.357 288.39 405.053 288.724 404.856C289.052 404.655 289.435 404.546 289.827 404.542C290.22 404.542 290.604 404.651 290.93 404.856C291.251 405.069 291.487 405.374 291.604 405.725V405.725L296.643 422.407L301.988 405.027C302.1 404.665 302.342 404.35 302.674 404.134C303.006 403.919 303.407 403.817 303.811 403.844C304.051 403.831 304.292 403.87 304.512 403.959C304.733 404.048 304.928 404.185 305.082 404.357C305.402 404.699 305.567 405.144 305.542 405.597V405.597Z" fill="#6460AA"/>
<path d="M321.669 421.282C321.836 421.128 321.967 420.943 322.054 420.74C322.141 420.536 322.182 420.318 322.175 420.099C322.201 418.498 321.812 416.915 321.042 415.484C320.678 414.821 320.22 414.207 319.678 413.66C319.146 413.108 318.532 412.628 317.856 412.235C316.423 411.453 314.785 411.053 313.123 411.081C311.419 411.056 309.74 411.464 308.268 412.264C306.841 413.06 305.679 414.209 304.914 415.583C304.093 417.062 303.677 418.706 303.704 420.37C303.678 422.036 304.116 423.68 304.975 425.143C305.806 426.53 307.037 427.675 308.528 428.448C310.094 429.248 311.857 429.655 313.644 429.63C314.838 429.621 316.02 429.414 317.136 429.018C318.25 428.678 319.288 428.152 320.199 427.465V427.465C320.372 427.331 320.511 427.163 320.606 426.974C320.702 426.784 320.751 426.577 320.751 426.368C320.747 426.133 320.691 425.901 320.585 425.688C320.48 425.474 320.327 425.284 320.138 425.128V425.128C319.829 424.91 319.453 424.791 319.066 424.786C318.615 424.794 318.179 424.939 317.825 425.2V425.2C317.292 425.595 316.684 425.895 316.033 426.083C315.304 426.321 314.539 426.446 313.766 426.453C312.167 426.527 310.6 426.016 309.401 425.029C308.382 424.172 307.711 423.015 307.502 421.752H320.521C320.951 421.725 321.358 421.559 321.669 421.282V421.282ZM307.471 418.661C307.721 417.518 308.341 416.473 309.248 415.669C309.768 415.219 310.377 414.87 311.042 414.64C311.707 414.41 312.414 414.305 313.123 414.33C313.815 414.3 314.506 414.402 315.154 414.63C315.802 414.858 316.393 415.207 316.891 415.654C317.774 416.466 318.353 417.52 318.545 418.661H307.471Z" fill="#6460AA"/>
<path d="M366.393 421.595C366.56 421.441 366.691 421.256 366.778 421.053C366.864 420.849 366.905 420.632 366.898 420.413C366.924 418.812 366.535 417.229 365.765 415.797C365.402 415.134 364.943 414.521 364.401 413.973C363.567 413.139 362.551 412.481 361.42 412.044C360.289 411.606 359.07 411.4 357.846 411.438C356.142 411.412 354.463 411.821 352.991 412.62C351.564 413.416 350.402 414.565 349.637 415.939C348.817 417.419 348.402 419.062 348.427 420.726C348.401 422.392 348.839 424.036 349.698 425.499C350.529 426.886 351.76 428.031 353.251 428.804C354.815 429.611 356.579 430.019 358.367 429.986C359.561 429.977 360.743 429.77 361.859 429.374C362.973 429.034 364.011 428.508 364.922 427.821V427.821C365.095 427.687 365.234 427.519 365.329 427.33C365.425 427.14 365.474 426.933 365.474 426.724C365.468 426.489 365.411 426.258 365.306 426.045C365.201 425.832 365.049 425.641 364.861 425.485V425.485C364.557 425.257 364.179 425.131 363.789 425.128C363.335 425.134 362.897 425.285 362.548 425.556V425.556C362.017 425.957 361.409 426.261 360.756 426.453C360.027 426.687 359.261 426.807 358.489 426.809C356.89 426.883 355.323 426.372 354.124 425.385C353.102 424.53 352.431 423.372 352.225 422.108H365.244C365.68 422.07 366.088 421.888 366.393 421.595V421.595ZM352.21 418.988C352.456 417.84 353.076 416.791 353.987 415.982C354.506 415.533 355.116 415.183 355.781 414.953C356.445 414.724 357.153 414.618 357.861 414.643C358.553 414.617 359.243 414.721 359.891 414.948C360.538 415.176 361.129 415.523 361.629 415.968C362.506 416.789 363.085 417.845 363.283 418.988H352.21Z" fill="white"/>
<path d="M384.757 428.277C384.763 428.49 384.719 428.701 384.626 428.896C384.533 429.091 384.395 429.264 384.221 429.402C383.9 429.678 383.478 429.831 383.041 429.83C382.725 429.836 382.411 429.778 382.122 429.659C381.839 429.515 381.597 429.31 381.418 429.06L376.317 423.02L371.003 429.26C370.848 429.453 370.643 429.607 370.408 429.706C370.172 429.806 369.913 429.848 369.655 429.83C369.427 429.839 369.199 429.806 368.985 429.73C368.772 429.655 368.577 429.539 368.413 429.391C368.25 429.243 368.121 429.065 368.034 428.868C367.947 428.672 367.904 428.461 367.909 428.248C367.905 427.813 368.074 427.392 368.384 427.066L373.943 420.598L368.69 414.401C368.374 414.078 368.204 413.655 368.215 413.218C368.203 412.8 368.361 412.392 368.659 412.079C368.826 411.915 369.028 411.787 369.253 411.703C369.478 411.619 369.719 411.582 369.961 411.594C370.218 411.589 370.472 411.634 370.709 411.724C370.947 411.815 371.161 411.95 371.34 412.121V412.121L376.348 418.119L381.311 412.406C381.484 412.177 381.713 411.989 381.979 411.858C382.245 411.727 382.541 411.656 382.842 411.651C383.078 411.643 383.312 411.68 383.531 411.761C383.75 411.842 383.949 411.965 384.113 412.121C384.416 412.423 384.586 412.82 384.588 413.233C384.581 413.685 384.408 414.123 384.098 414.472V414.472L378.753 420.641L384.236 427.166C384.534 427.474 384.716 427.864 384.757 428.277Z" fill="white"/>
<path d="M402.952 424.502C402.955 425.535 402.583 426.539 401.895 427.351C401.161 428.221 400.187 428.89 399.077 429.288C397.813 429.744 396.466 429.966 395.11 429.944C393.674 429.947 392.248 429.716 390.898 429.26C389.635 428.851 388.496 428.167 387.575 427.265V427.265C387.287 426.978 387.118 426.604 387.1 426.211C387.106 425.947 387.177 425.688 387.307 425.454C387.437 425.219 387.623 425.015 387.85 424.858V424.858C388.187 424.612 388.602 424.477 389.03 424.473C389.3 424.473 389.567 424.529 389.811 424.638C390.055 424.746 390.269 424.904 390.439 425.1C390.96 425.64 391.618 426.052 392.353 426.297C393.235 426.6 394.17 426.75 395.11 426.738C396.24 426.814 397.368 426.581 398.357 426.069C398.646 425.907 398.887 425.68 399.055 425.408C399.224 425.136 399.316 424.829 399.322 424.516C399.309 424.224 399.216 423.94 399.053 423.691C398.889 423.442 398.661 423.236 398.388 423.091C397.304 422.518 396.105 422.159 394.865 422.037C392.982 421.847 391.184 421.209 389.642 420.185C389.071 419.79 388.606 419.276 388.285 418.686C387.963 418.095 387.793 417.442 387.789 416.78C387.761 416.002 387.944 415.23 388.321 414.535C388.699 413.84 389.259 413.245 389.949 412.805C391.454 411.868 393.238 411.394 395.049 411.452C396.465 411.425 397.87 411.682 399.169 412.207C400.314 412.672 401.311 413.403 402.064 414.33V414.33C402.276 414.626 402.398 414.971 402.416 415.327C402.422 415.588 402.352 415.846 402.211 416.072C402.071 416.298 401.866 416.484 401.62 416.609C401.337 416.778 401.006 416.862 400.67 416.851C400.381 416.848 400.096 416.79 399.832 416.679C399.569 416.569 399.333 416.409 399.139 416.21C398.627 415.676 397.992 415.256 397.281 414.982C396.57 414.708 395.802 414.587 395.034 414.629C394.1 414.587 393.174 414.8 392.369 415.241C392.11 415.377 391.893 415.573 391.74 415.811C391.587 416.048 391.503 416.318 391.496 416.595C391.481 416.878 391.549 417.16 391.692 417.411C391.835 417.661 392.047 417.871 392.307 418.019C393.39 418.562 394.576 418.901 395.8 419.017C397.761 419.197 399.634 419.867 401.221 420.954C401.773 421.394 402.216 421.938 402.523 422.55C402.815 423.164 402.961 423.83 402.952 424.502V424.502Z" fill="white"/>
<path d="M329.205 433.904H341.657C342.41 433.904 343.02 433.34 343.02 432.643C343.02 431.947 342.41 431.383 341.657 431.383H329.205C328.452 431.383 327.842 431.947 327.842 432.643C327.842 433.34 328.452 433.904 329.205 433.904Z" fill="#6460AA"/>
<path d="M345.256 413.233V406.252C345.264 406.024 345.224 405.798 345.137 405.585C345.05 405.372 344.919 405.178 344.751 405.012C344.579 404.846 344.372 404.714 344.143 404.626C343.913 404.537 343.667 404.494 343.418 404.5C343.169 404.494 342.921 404.535 342.69 404.621C342.459 404.707 342.248 404.836 342.072 405C341.896 405.164 341.757 405.359 341.665 405.574C341.573 405.79 341.528 406.02 341.534 406.252V414.073C340.875 413.504 340.133 413.024 339.329 412.648C338.088 412.067 336.721 411.756 335.331 411.737C333.937 411.758 332.566 412.07 331.319 412.648C330.522 413.028 329.785 413.507 329.128 414.073C328.134 414.621 327.286 415.371 326.647 416.267C325.709 417.673 325.264 419.316 325.376 420.968C325.354 422.624 325.803 424.256 326.678 425.698C327.533 427.089 328.77 428.245 330.262 429.046C331.809 429.85 333.552 430.271 335.324 430.271C337.096 430.271 338.838 429.85 340.386 429.046C341.886 428.249 343.129 427.093 343.985 425.698C344.853 424.253 345.302 422.623 345.287 420.968V413.574C345.286 413.46 345.275 413.346 345.256 413.233ZM341.397 422.607C341.256 423.105 341.045 423.584 340.769 424.031C340.245 424.926 339.473 425.674 338.533 426.197C337.945 426.522 337.303 426.753 336.633 426.881H336.327H335.76H334.903H334.321H334.03C333.355 426.754 332.707 426.523 332.115 426.197C331.164 425.678 330.381 424.93 329.848 424.031C329.289 423.085 329.004 422.02 329.021 420.94V420.84C329.014 420.755 329.014 420.669 329.021 420.584C329.009 420.361 329.009 420.137 329.021 419.914V419.914C329.134 419.193 329.388 418.498 329.772 417.863C330.301 416.966 331.085 416.221 332.038 415.711V415.711C332.949 415.238 333.968 414.975 335.01 414.942H335.454C336.531 414.948 337.588 415.218 338.517 415.726C338.859 415.91 339.178 416.13 339.467 416.381C340.62 417.329 341.347 418.647 341.504 420.071C341.488 420.146 341.488 420.224 341.504 420.299C341.504 420.427 341.504 420.626 341.504 420.968C341.539 421.517 341.503 422.067 341.397 422.607V422.607Z" fill="url(#paint0_linear_26_17)"/>
<path d="M329.128 406.252C329.152 406.011 329.121 405.769 329.038 405.54C328.956 405.311 328.822 405.101 328.647 404.923C328.472 404.744 328.259 404.602 328.022 404.504C327.784 404.407 327.527 404.357 327.268 404.357C327.008 404.357 326.751 404.407 326.514 404.504C326.276 404.602 326.063 404.744 325.888 404.923C325.713 405.101 325.58 405.311 325.497 405.54C325.414 405.769 325.383 406.011 325.407 406.252V420.968C325.392 421.934 325.542 422.896 325.851 423.818C326.066 424.457 326.353 425.073 326.709 425.655C327.581 427.067 328.843 428.235 330.365 429.04C331.887 429.844 333.612 430.254 335.362 430.229C333.517 429.339 331.96 428.008 330.851 426.373C329.742 424.738 329.121 422.858 329.052 420.926L329.159 412.492L329.128 406.252Z" fill="url(#paint1_linear_26_17)"/>
<path d="M230.217 49.3212L222.467 51.8143C218.53 58.0813 212.215 62.7519 204.764 64.9083C197.313 67.0647 189.264 66.5508 182.199 63.4677C175.135 60.3847 169.565 54.9553 166.585 48.2468C163.606 41.5382 163.431 34.0357 166.096 27.2136C168.761 20.3915 174.073 14.7432 180.988 11.3789C187.903 8.01465 195.92 7.17759 203.465 9.0323C211.009 10.887 217.535 15.2993 221.76 21.4021C225.985 27.5049 227.603 34.8567 226.296 42.0128V42.0128L230.217 49.3212Z" fill="white"/>
<path d="M230.217 49.3212C230.217 49.3212 230.11 49.1503 229.941 48.8368C229.773 48.5234 229.482 48.039 229.16 47.4122L226.189 41.9985H226.388C226.379 42.0076 226.369 42.0149 226.357 42.0199C226.345 42.0249 226.332 42.0275 226.319 42.0275C226.306 42.0275 226.293 42.0249 226.281 42.0199C226.269 42.0149 226.259 42.0076 226.25 41.9985C226.237 41.9818 226.231 41.9619 226.231 41.9416C226.231 41.9212 226.237 41.9013 226.25 41.8846C227.075 37.2397 226.675 32.4781 225.086 28.0085C224.014 25.0887 222.464 22.3401 220.491 19.8596C215.709 13.9014 208.635 9.89414 200.749 8.67609C196.316 7.9438 191.765 8.13846 187.424 9.24595C182.811 10.4364 178.548 12.5845 174.956 15.5286C171.19 18.6223 168.311 22.539 166.578 26.9258C165.68 29.1542 165.069 31.4734 164.756 33.8353C164.679 35.0035 164.572 36.1717 164.572 37.34L164.664 39.078V39.9471L164.817 40.8018C165.463 45.311 167.219 49.6206 169.948 53.3957C172.504 56.8925 175.869 59.8131 179.796 61.9436C183.405 63.9312 187.404 65.2292 191.559 65.7616C195.314 66.2291 199.129 66.0552 202.816 65.2488L205.328 64.5792C206.155 64.337 206.86 64.0093 207.702 63.7386C209.178 63.1737 210.603 62.4971 211.96 61.7156C216.261 59.2305 219.847 55.8075 222.406 51.7431L228.149 49.9338L229.681 49.4779L230.217 49.3212L229.742 49.4922L228.21 49.9908L222.497 51.9711C219.957 56.0343 216.387 59.458 212.098 61.9436C210.733 62.7467 209.299 63.4425 207.809 64.0236C207.013 64.2942 206.278 64.6362 205.42 64.8783L202.862 65.5764C199.113 66.4406 195.224 66.6579 191.39 66.2175C187.171 65.686 183.105 64.3836 179.429 62.3852C175.429 60.2279 172 57.263 169.396 53.7091C166.641 49.9138 164.86 45.5808 164.189 41.044L164.051 40.175V39.2917L163.959 37.5252C163.959 36.3427 164.051 35.146 164.143 33.9635C164.452 31.5579 165.069 29.1952 165.981 26.9258C167.75 22.4318 170.692 18.4173 174.543 15.2437C178.203 12.2523 182.544 10.0703 187.24 8.8613C191.659 7.74881 196.289 7.56389 200.795 8.31993C204.961 9.00969 208.938 10.4625 212.496 12.5939C215.712 14.5074 218.521 16.956 220.782 19.8168C222.766 22.3322 224.316 25.12 225.377 28.0798C226.969 32.5996 227.332 37.416 226.434 42.0983H226.219C226.241 42.0821 226.268 42.0733 226.296 42.0733C226.324 42.0733 226.351 42.0821 226.372 42.0983C227.613 44.4774 228.578 46.3722 229.237 47.5974L229.956 49.022C230.047 49.1187 230.134 49.2185 230.217 49.3212V49.3212Z" fill="#263238"/>
<path d="M181.848 38.2802L185.754 34.3909L193.81 40.6024L208.652 26.3844L212.557 30.0315L193.489 47.8966L181.848 38.2802Z" fill="#6460AA"/>
<path d="M213.323 187.526C213.216 187.17 225.576 171.997 225.576 171.997L214.64 161.355L202.387 170.345L213.323 187.526Z" fill="#FFBF9D"/>
<path d="M412.785 110.282L415.649 119.57C415.649 119.57 421.776 128.033 423.951 129.044C424.517 129.315 425.069 129.7 425.589 129.885C427.535 130.54 430.092 129.885 429.572 127.776C430.174 127.84 430.783 127.731 431.317 127.464C431.851 127.196 432.284 126.784 432.558 126.281C433.431 124.685 431.532 122.747 431.532 122.747C431.532 122.747 433.738 123.275 434.733 121.878C435.56 120.724 434.396 119.2 434.396 119.2C434.396 119.2 435.376 117.633 434.886 116.764C434.167 115.824 433.357 114.946 432.466 114.143C431.325 111.68 429.989 109.299 428.469 107.019C427.154 105.358 425.579 103.888 423.797 102.66L412.785 110.282Z" fill="#FFBF9D"/>
<path d="M434.626 119.4C434.626 119.257 433.722 118.701 432.727 117.79C431.731 116.878 431.103 115.995 430.95 116.066C431.217 116.862 431.692 117.584 432.334 118.166C432.976 118.748 433.764 119.172 434.626 119.4V119.4Z" fill="#FF9A6C"/>
<path d="M431.93 123.018C431.93 122.89 431.042 122.377 430.062 121.593C429.081 120.81 428.423 119.927 428.285 120.012C428.147 120.098 428.622 121.081 429.679 121.978C430.736 122.876 431.854 123.203 431.93 123.018Z" fill="#FF9A6C"/>
<path d="M423.951 122.605C424.281 123.822 425.035 124.904 426.095 125.682C427.016 126.574 428.134 127.269 429.373 127.719C428.464 126.856 427.497 126.047 426.478 125.298C424.916 123.973 424.088 122.548 423.951 122.605Z" fill="#FF9A6C"/>
<path d="M33.4964 360.962C33.3432 361.247 31.5666 364.381 32.0567 365.521C32.2513 365.879 32.5375 366.187 32.89 366.418C33.2425 366.649 33.6506 366.796 34.0784 366.846C34.1784 367.744 34.6053 368.584 35.2884 369.225C36.0945 369.737 37.0547 369.996 38.03 369.966L38.857 370.878C39.1105 371.239 39.4662 371.529 39.8849 371.715C40.3037 371.901 40.7694 371.976 41.231 371.932C42.1154 371.598 43.0897 371.528 44.0186 371.733C45.3358 372.117 48.0927 369.126 49.5324 367.744C50.9721 366.362 52.9326 364.524 51.937 361.632C50.6198 357.728 48.8738 352.685 48.8738 352.685L51.6613 345.32L37.9993 345.747L37.402 348.953C37.402 348.953 35.5181 349.793 34.2162 353.412C33.4265 355.857 33.1816 358.426 33.4964 360.962V360.962Z" fill="#AE7461"/>
<path d="M48.0927 352.956C48.0927 352.956 52.0136 361.347 52.0136 361.632C52.0136 361.917 48.1693 369.296 46.3466 370.422C44.524 371.547 42.1347 372.801 42.1347 372.801C42.1347 372.801 40.0823 371.889 41.8437 369.083C43.605 366.276 45.6421 363.498 45.6421 363.498L44.3402 360.649C44.3402 360.649 37.6471 357.486 39.485 351.26" fill="#AE7461"/>
<path d="M39.4084 351.218C39.315 351.474 39.2383 351.736 39.1787 352.001C39.101 352.32 39.0549 352.644 39.0408 352.97C38.9954 353.411 38.9954 353.854 39.0408 354.295C39.216 355.495 39.6878 356.641 40.4193 357.643C41.4055 358.928 42.6808 359.997 44.1564 360.777L44.0645 360.677C44.4781 361.603 44.8916 362.572 45.3511 363.527V363.341C44.4015 364.624 43.4213 366.02 42.4563 367.487C41.923 368.236 41.4519 369.022 41.0472 369.838C40.8571 370.291 40.7735 370.777 40.8022 371.262C40.8153 371.802 41.0576 372.314 41.4761 372.687C41.6146 372.803 41.7632 372.908 41.9203 373.001H42.0275H42.1347L44.4321 371.704L45.5655 371.063C45.9501 370.865 46.3187 370.641 46.6683 370.393C47.2531 369.822 47.7669 369.191 48.1999 368.513C48.6441 367.872 49.0423 367.216 49.4405 366.575C50.191 365.307 50.8802 364.068 51.4775 362.9C51.6154 362.601 51.7532 362.316 51.9064 362.031L51.9983 361.803C52.005 361.756 52.005 361.708 51.9983 361.66C52.0057 361.604 52.0057 361.546 51.9983 361.489L51.8298 361.034C51.5847 360.478 51.3397 359.951 51.1253 359.438C50.2063 357.415 49.4252 355.791 48.8891 354.68L48.2458 353.397C48.1819 353.247 48.0997 353.103 48.0008 352.97C48.0404 353.127 48.0968 353.28 48.1692 353.426C48.3071 353.782 48.4909 354.209 48.7206 354.751C49.2414 355.933 49.9459 357.6 50.8189 359.552C51.0334 360.065 51.2478 360.606 51.4929 361.162L51.6307 361.561H51.7379C51.6154 361.561 51.646 361.561 51.646 361.561L51.5541 361.76L51.1253 362.615C50.5126 363.769 49.8234 364.994 49.0576 366.262C48.6594 366.875 48.2612 367.53 47.817 368.157C47.3813 368.803 46.8674 369.4 46.2854 369.938C45.9521 370.177 45.5987 370.392 45.2286 370.579L44.1105 371.205L41.8284 372.488H42.0581C41.9351 372.421 41.8219 372.339 41.7212 372.245C41.4324 371.931 41.2495 371.545 41.195 371.134C41.1405 370.724 41.217 370.308 41.4148 369.938C41.8035 369.148 42.254 368.386 42.7627 367.658C43.7276 366.233 44.6925 364.809 45.6268 363.498V363.413V363.313C45.1826 362.301 44.7384 361.347 44.3249 360.464C42.892 359.735 41.6479 358.724 40.6797 357.5C39.9449 356.549 39.4573 355.451 39.2553 354.295C39.1654 353.267 39.2169 352.233 39.4084 351.218V351.218Z" fill="#6F4439"/>
<path d="M79.9376 373.643L1.10551 372.196L0.00696004 424.001L78.8391 425.447L79.9376 373.643Z" fill="#6460AA"/>
<path d="M70.8218 373.727C70.6842 373.984 70.52 374.227 70.3317 374.454L68.8001 376.42C67.4523 378.115 65.5531 380.622 62.9034 383.543C59.7809 386.917 56.1732 389.875 52.1821 392.333C47.2819 395.44 41.5743 397.266 35.656 397.618C29.6926 397.684 23.867 395.95 19.0533 392.675C15.1461 390.082 11.677 386.961 8.76083 383.415C6.23366 380.437 4.42636 377.873 3.18575 376.092L1.73072 373.941C1.5566 373.706 1.41267 373.452 1.30187 373.186C1.51593 373.39 1.70591 373.614 1.86857 373.855L3.40018 375.85C4.70205 377.574 6.58594 380.124 9.14373 382.973C12.0864 386.422 15.5476 389.459 19.4209 391.991C24.1239 395.141 29.7845 396.813 35.5794 396.764C41.3543 396.405 46.9267 394.642 51.7379 391.649C55.7058 389.258 59.3116 386.383 62.4592 383.101C65.1548 380.252 67.054 377.83 68.5857 376.192L70.2398 374.297C70.4113 374.088 70.6065 373.897 70.8218 373.727V373.727Z" fill="#263238"/>
<path d="M20.2326 377.161C20.2326 376.79 23.0661 364.78 28.7943 359.965C31.9495 357.315 38.6426 354.936 45.6421 363.498L43.2221 366.675C43.2221 366.675 35.947 357.372 31.7963 362.002C29.5448 364.51 25.5167 370.265 25.241 376.121L20.2326 377.161Z" fill="#6460AA"/>
<path d="M43.0537 366.818C43.4954 366.4 43.8626 365.919 44.1411 365.393C44.3071 365.133 44.4047 364.84 44.426 364.538C44.4473 364.236 44.3917 363.933 44.2636 363.655C44.1116 363.449 43.9043 363.285 43.6624 363.177C43.4205 363.07 43.1525 363.023 42.8852 363.042C42.3465 363.096 41.8412 363.311 41.4455 363.655C41.0591 364.003 40.715 364.39 40.4193 364.809" fill="#AE7461"/>
<path d="M40.4193 364.723C40.3427 364.723 40.4193 364.225 41.0013 363.612C41.3192 363.232 41.7355 362.933 42.2113 362.743C42.5318 362.615 42.8831 362.566 43.2299 362.604C43.5767 362.642 43.9068 362.763 44.187 362.957C44.4628 363.169 44.6629 363.455 44.7613 363.775C44.8597 364.095 44.8517 364.436 44.7384 364.752C44.601 365.194 44.3778 365.609 44.0798 365.977C43.5744 366.604 43.1302 366.846 43.0536 366.775C42.9771 366.704 43.2528 366.333 43.5897 365.706C43.7883 365.355 43.9376 364.982 44.0339 364.595C44.0893 364.408 44.087 364.21 44.0275 364.023C43.9679 363.837 43.8534 363.67 43.6969 363.541C42.9464 363.014 41.9356 363.541 41.4148 363.968C40.8941 364.396 40.5265 364.795 40.4193 364.723Z" fill="#6F4439"/>
<path d="M37.6164 361.318C37.8763 360.951 38.2192 360.641 38.6213 360.41C39.0234 360.178 39.475 360.031 39.9445 359.979C40.4071 359.907 40.8822 359.979 41.2972 360.182C41.7121 360.385 42.044 360.709 42.2419 361.105C42.2963 361.446 42.2755 361.793 42.1807 362.126C42.0859 362.459 41.9191 362.771 41.6905 363.042C40.5879 364.756 39.3327 366.381 37.9381 367.9" fill="#AE7461"/>
<path d="M37.9381 367.9C37.7543 367.772 39.7913 365.436 41.6599 362.316C41.7746 362.182 41.8567 362.027 41.9006 361.861C41.9446 361.694 41.9492 361.522 41.9143 361.354C41.8793 361.186 41.8056 361.027 41.6982 360.888C41.5908 360.749 41.4524 360.633 41.2923 360.549C40.9997 360.401 40.6779 360.309 40.3462 360.28C40.0145 360.25 39.6799 360.284 39.3625 360.378C38.2291 360.72 37.8308 361.404 37.6624 361.318C37.4939 361.233 37.8615 360.449 39.194 359.894C39.5855 359.737 40.0093 359.662 40.4355 359.674C40.8616 359.687 41.2796 359.786 41.6599 359.965C41.9102 360.076 42.1325 360.235 42.3121 360.431C42.4916 360.627 42.6243 360.857 42.7014 361.105C42.8142 361.63 42.7219 362.176 42.441 362.643C41.3591 364.674 39.824 366.466 37.9381 367.9V367.9Z" fill="#6F4439"/>
<path d="M33.7414 360.82C34.0762 360.124 34.605 359.524 35.2731 359.082C35.5679 358.884 35.9057 358.748 36.2629 358.684C36.62 358.62 36.9879 358.629 37.3407 358.711C37.683 358.806 37.9884 358.991 38.2196 359.244C38.4508 359.497 38.5978 359.807 38.6426 360.136C38.5994 360.72 38.3641 361.277 37.9687 361.732C36.8966 363.256 35.7172 365.165 34.4766 366.575" fill="#AE7461"/>
<path d="M34.4 366.632C34.3081 366.561 34.7676 365.92 35.4569 364.837C35.8551 364.21 36.2533 363.584 36.6668 362.957C37.1772 362.229 37.6475 361.478 38.0759 360.706C38.1372 360.54 38.1616 360.363 38.1474 360.188C38.1332 360.013 38.0808 359.842 37.9934 359.686C37.906 359.53 37.7854 359.392 37.639 359.281C37.4926 359.17 37.3233 359.088 37.1416 359.039C36.8085 358.958 36.46 358.95 36.1228 359.014C35.7856 359.078 35.4687 359.214 35.1965 359.409C34.2009 360.136 33.8486 360.834 33.6649 360.834C33.4811 360.834 33.6649 359.965 34.7676 359.011C35.0969 358.724 35.4973 358.519 35.933 358.412C36.3686 358.305 36.826 358.3 37.2642 358.398C37.811 358.537 38.2813 358.862 38.5813 359.31C38.7446 359.554 38.8448 359.831 38.874 360.118C38.9032 360.404 38.8607 360.693 38.7498 360.962C38.5498 361.424 38.2874 361.859 37.9687 362.259L37.2029 363.341C36.7128 364.025 36.2533 364.652 35.8398 365.151C35.1658 366.148 34.4766 366.689 34.4 366.632Z" fill="#6F4439"/>
<path d="M40.5265 397.576C40.5265 398.277 40.3032 398.962 39.8848 399.545C39.4664 400.128 38.8717 400.583 38.1757 400.852C37.4798 401.121 36.7137 401.192 35.9744 401.056C35.235 400.92 34.5554 400.584 34.0215 400.089C33.4875 399.594 33.1231 398.964 32.9742 398.276C32.8253 397.589 32.8987 396.876 33.185 396.228C33.4713 395.58 33.9577 395.025 34.5829 394.633C35.208 394.242 35.9438 394.031 36.6975 394.028C37.1996 394.027 37.6971 394.117 38.1616 394.294C38.6261 394.472 39.0483 394.733 39.4041 395.062C39.7598 395.392 40.0421 395.784 40.2347 396.215C40.4274 396.646 40.5265 397.109 40.5265 397.576Z" fill="#263238"/>
<path d="M104.088 245.025C104.088 245.025 90.3039 249.085 85.7091 253.316C73.4562 264.243 55.3832 281.695 50.2216 289.331C47.0052 294.104 36.1308 346.317 36.1308 346.317L60.4068 347.4L72.4606 294.759L93.1221 275.541L104.088 245.025Z" fill="#E0E0E0"/>
<path d="M212.419 371.291L227.414 383.828L229.773 385.167C229.773 385.167 246.1 363.897 251.001 364.752L238.304 411.765L234.245 410.668L206.998 394.171L212.419 371.291Z" fill="#263238"/>
<path d="M223.708 400.026C223.733 400.512 223.95 400.973 224.317 401.32C224.684 401.667 225.176 401.876 225.699 401.907C226.222 401.9 226.723 401.707 227.099 401.368C227.475 401.029 227.697 400.57 227.72 400.083C227.694 399.566 227.462 399.076 227.068 398.71C226.674 398.344 226.148 398.127 225.591 398.103C225.047 398.16 224.548 398.412 224.199 398.806C223.85 399.199 223.68 399.703 223.723 400.211" fill="#E0E0E0"/>
<path d="M238.579 411.865L234.521 410.782L248.213 366.063C248.213 366.063 249.745 364.196 251.277 364.809L238.579 411.865Z" fill="#263238"/>
<path d="M229.773 385.167C230.018 385.167 229.773 386.406 230.309 387.717C230.845 389.028 231.672 389.883 231.519 390.068C231.366 390.253 229.987 389.583 229.466 387.974C228.946 386.364 229.558 385.053 229.773 385.167Z" fill="#455A64"/>
<path d="M233.295 380.736C233.556 380.736 233.694 381.833 234.536 382.859C235.378 383.885 236.42 384.369 236.343 384.597C236.267 384.825 234.812 384.597 233.816 383.344C232.821 382.09 233.066 380.694 233.295 380.736Z" fill="#455A64"/>
<path d="M240.402 379.412C240.402 379.639 239.085 379.668 237.89 378.77C236.696 377.873 236.359 376.662 236.68 376.605C237.002 376.548 237.446 377.389 238.442 378.129C239.437 378.87 240.402 379.184 240.402 379.412Z" fill="#455A64"/>
<path d="M223.692 384.184C223.891 384.327 223.263 385.31 223.018 386.634C222.773 387.959 222.926 389.071 222.681 389.142C222.436 389.213 221.824 388.031 222.145 386.478C222.467 384.925 223.554 384.027 223.692 384.184Z" fill="#263238"/>
<path d="M149.286 184.463C150.119 183.791 151.157 183.376 152.254 183.276C153.352 183.177 154.456 183.397 155.413 183.907C156.966 183.485 158.626 183.556 160.13 184.111C161.634 184.666 162.895 185.672 163.714 186.97C164.813 186.788 165.944 186.873 166.996 187.219C168.049 187.565 168.986 188.159 169.718 188.943C170.45 189.727 170.95 190.674 171.17 191.692C171.39 192.709 171.323 193.763 170.974 194.749C172.082 194.96 173.091 195.49 173.858 196.264C174.624 197.038 175.11 198.016 175.245 199.061C175.381 200.106 175.159 201.164 174.613 202.085C174.066 203.006 173.222 203.744 172.199 204.194C173.224 204.932 173.913 206.001 174.132 207.189C174.35 208.377 174.082 209.598 173.38 210.611C172.678 211.624 171.592 212.355 170.339 212.66C169.085 212.965 167.754 212.821 166.609 212.258L148.092 190.048C147.643 189.117 147.517 188.079 147.731 187.078C147.945 186.077 148.489 185.163 149.286 184.463Z" fill="#263238"/>
<path d="M167.053 212.172C168.567 207.232 168.028 201.943 165.542 197.355C163.056 192.768 158.806 189.219 153.636 187.412L152.564 187.042C140.817 183.651 131.121 191.045 127.859 202.057L115.07 240.352L123.999 261.394L138.565 254.698L142.762 245.167C142.762 245.167 154.448 247.432 158.736 237.203C160.758 232.189 164.112 221.703 167.053 212.172Z" fill="#AE7461"/>
<path d="M142.7 246.022C137.608 244.227 133.175 241.113 129.927 237.047C129.927 237.047 130.325 245.595 141.598 248.558L142.7 246.022Z" fill="#6F4439"/>
<path d="M160.008 221.504C159.858 221.888 159.554 222.202 159.159 222.38C158.765 222.559 158.311 222.587 157.894 222.458C157.478 222.343 157.128 222.079 156.921 221.723C156.714 221.368 156.668 220.951 156.791 220.564C156.944 220.179 157.251 219.864 157.648 219.686C158.045 219.508 158.502 219.48 158.92 219.609C159.133 219.655 159.334 219.742 159.507 219.866C159.681 219.99 159.824 220.147 159.927 220.326C160.03 220.506 160.091 220.704 160.105 220.907C160.119 221.11 160.085 221.314 160.008 221.504V221.504Z" fill="#263238"/>
<path d="M162.55 217.857C162.29 217.971 161.417 216.731 159.717 216.147C158.017 215.563 156.454 215.919 156.362 215.663C156.271 215.406 156.638 215.264 157.327 215.093C158.251 214.867 159.228 214.922 160.115 215.25C161.003 215.548 161.761 216.108 162.274 216.845C162.657 217.387 162.688 217.8 162.55 217.857Z" fill="#263238"/>
<path d="M145.197 217.087C145.044 217.472 144.737 217.787 144.34 217.965C143.943 218.143 143.487 218.171 143.068 218.042C142.855 217.996 142.655 217.909 142.481 217.785C142.307 217.661 142.164 217.504 142.061 217.325C141.958 217.145 141.897 216.947 141.884 216.744C141.87 216.541 141.903 216.337 141.981 216.147C142.13 215.763 142.434 215.449 142.829 215.271C143.224 215.092 143.678 215.064 144.094 215.193C144.51 215.308 144.86 215.572 145.067 215.928C145.274 216.283 145.321 216.7 145.197 217.087V217.087Z" fill="#263238"/>
<path d="M146.407 211.973C146.131 212.087 145.274 210.847 143.573 210.263C141.873 209.679 140.311 210.035 140.204 209.779C140.097 209.523 140.48 209.38 141.184 209.209C142.101 208.99 143.068 209.039 143.953 209.35C144.839 209.661 145.6 210.219 146.131 210.947C146.499 211.531 146.545 211.916 146.407 211.973Z" fill="#263238"/>
<path d="M141.077 226.647C141.368 226.647 141.781 228.071 143.191 229.097C144.6 230.123 146.254 230.265 146.254 230.522C146.254 230.778 145.856 230.821 145.136 230.778C144.184 230.712 143.276 230.38 142.532 229.824C141.787 229.278 141.25 228.524 141 227.673C140.847 227.06 140.939 226.661 141.077 226.647Z" fill="#263238"/>
<path d="M147.28 225.621C148.28 225.664 149.269 225.832 150.221 226.12C150.68 226.234 151.109 226.291 151.308 226.034C151.506 225.633 151.57 225.187 151.492 224.752C151.492 223.627 151.492 222.458 151.492 221.233C151.353 218.218 151.476 215.198 151.859 212.201C152.254 215.197 152.393 218.217 152.273 221.233C152.273 222.458 152.273 223.627 152.273 224.752C152.357 225.331 152.21 225.919 151.859 226.405C151.742 226.527 151.594 226.622 151.429 226.682C151.264 226.741 151.086 226.763 150.91 226.746C150.649 226.724 150.391 226.671 150.144 226.59C149.15 226.379 148.188 226.054 147.28 225.621Z" fill="#263238"/>
<path d="M148.23 205.206C148.03 205.648 146.453 205.306 144.554 205.405C142.654 205.505 141.092 205.918 140.878 205.491C140.786 205.291 141.092 204.878 141.736 204.479C142.578 204.003 143.537 203.733 144.523 203.696C145.495 203.649 146.463 203.846 147.326 204.266C148 204.608 148.306 204.992 148.23 205.206Z" fill="#263238"/>
<path d="M163.913 213.383C163.5 213.683 162.382 212.97 160.973 212.571C159.564 212.172 158.231 212.115 158.063 211.659C158.063 211.446 158.308 211.118 158.951 210.919C159.8 210.691 160.703 210.705 161.544 210.959C162.385 211.213 163.125 211.695 163.668 212.343C164.051 212.828 164.112 213.241 163.913 213.383Z" fill="#263238"/>
<path d="M167.88 208.012C167.88 208.012 167.559 200.562 164.817 197.897C161.509 194.664 158.108 198.182 154.678 195.846C151.247 193.51 148.076 190.404 143.022 191.8C137.508 193.324 138.657 196.159 136.559 200.619C128.028 218.726 122.284 222.686 124.765 213.626C125.041 212.628 122.498 210.876 123.708 206.702C125.24 201.288 127.599 194.863 130.356 191.601C132.668 188.837 135.456 187.327 139.852 186.173C146.79 184.306 154.279 186.814 159.135 189.022C163.99 191.23 171.587 200.134 167.88 208.012Z" fill="#263238"/>
<path d="M125.608 213.583C125.746 213.202 125.8 212.798 125.766 212.397C125.731 211.995 125.609 211.605 125.407 211.249C125.205 210.893 124.927 210.579 124.59 210.326C124.253 210.074 123.865 209.887 123.448 209.779C121.319 209.238 118.578 209.523 117.122 213.526C114.534 220.649 122.744 221.589 122.82 221.39C122.897 221.19 124.551 216.575 125.608 213.583Z" fill="#AE7461"/>
<path d="M122.131 218.199C122.131 218.199 121.978 218.199 121.717 218.199C121.353 218.214 120.994 218.108 120.706 217.899C120.32 217.451 120.068 216.916 119.977 216.348C119.885 215.78 119.957 215.199 120.186 214.666C120.384 214.047 120.735 213.481 121.212 213.013C121.365 212.814 121.568 212.652 121.802 212.541C122.037 212.429 122.296 212.371 122.56 212.372C122.727 212.384 122.885 212.451 123.005 212.56C123.126 212.67 123.201 212.815 123.218 212.97C123.218 213.198 123.218 213.326 123.218 213.355C123.218 213.383 123.417 213.284 123.463 212.97C123.489 212.78 123.44 212.588 123.326 212.429C123.249 212.321 123.15 212.229 123.034 212.158C122.918 212.087 122.788 212.039 122.652 212.016C122.318 211.975 121.978 212.014 121.665 212.128C121.351 212.243 121.074 212.43 120.86 212.671C120.315 213.188 119.911 213.818 119.68 214.509C119.412 215.131 119.348 215.813 119.495 216.47C119.642 217.126 119.994 217.728 120.507 218.199C120.693 218.318 120.904 218.398 121.127 218.432C121.349 218.467 121.577 218.455 121.794 218.398C122.054 218.355 122.161 218.213 122.131 218.199Z" fill="#6F4439"/>
<path d="M131.229 200.034C131.879 201.055 132.789 201.911 133.878 202.528C134.434 202.815 135.083 202.905 135.706 202.782C136.328 202.659 136.881 202.331 137.263 201.858C137.554 201.402 137.646 200.789 138.152 200.533C138.657 200.277 139.438 200.633 140.051 200.918C141.116 201.39 142.324 201.506 143.471 201.246C144.617 200.987 145.633 200.368 146.346 199.493C146.548 199.956 146.927 200.334 147.411 200.552C147.895 200.77 148.448 200.814 148.965 200.675C149.987 200.362 150.956 199.916 151.844 199.351C152.291 199.074 152.803 198.903 153.336 198.851C153.87 198.799 154.409 198.868 154.907 199.051C155.443 199.322 155.842 199.806 156.439 199.963C157.465 200.22 158.384 199.308 158.905 198.453C159.426 197.598 159.962 196.558 161.003 196.359C162.045 196.159 162.872 196.786 163.73 197.228C164.587 197.67 165.858 197.883 166.425 197.128C166.558 196.914 166.641 196.678 166.67 196.432C166.699 196.187 166.673 195.939 166.594 195.703C166.327 194.638 165.681 193.688 164.761 193.008C163.841 192.328 162.7 191.957 161.524 191.957C161.625 190.657 161.309 189.358 160.616 188.225C159.923 187.092 158.884 186.176 157.631 185.594C156.378 185.011 154.966 184.787 153.576 184.951C152.186 185.115 150.88 185.659 149.822 186.515C149.289 185.561 148.516 184.742 147.57 184.126C146.623 183.51 145.531 183.115 144.386 182.976C143.24 182.836 142.076 182.955 140.99 183.323C139.905 183.691 138.931 184.297 138.152 185.09C137.318 184.54 136.329 184.23 135.308 184.198C134.287 184.167 133.278 184.416 132.408 184.914C131.538 185.413 130.844 186.138 130.414 187C129.984 187.862 129.836 188.823 129.988 189.763C129.156 189.845 128.36 190.122 127.674 190.568C126.988 191.014 126.435 191.614 126.067 192.313C125.912 192.666 125.842 193.045 125.86 193.426C125.878 193.806 125.985 194.179 126.173 194.517C126.36 194.856 126.625 195.152 126.948 195.387C127.271 195.621 127.644 195.787 128.043 195.874C127.482 196.334 127.136 196.978 127.076 197.671C127.017 198.364 127.25 199.051 127.725 199.587C128.2 200.123 128.881 200.467 129.623 200.545C130.365 200.623 131.111 200.43 131.703 200.006" fill="#263238"/>
<path d="M127.507 195.618C127.373 195.851 127.297 196.109 127.284 196.372C127.271 196.636 127.321 196.899 127.43 197.142C127.615 197.739 128.037 198.248 128.61 198.567C128.968 198.755 129.366 198.868 129.776 198.897C130.186 198.927 130.598 198.872 130.984 198.738L130.693 198.581C130.822 199.377 131.091 200.147 131.489 200.861C131.752 201.342 132.111 201.772 132.546 202.129C133.118 202.565 133.823 202.825 134.562 202.871C135.3 202.917 136.036 202.747 136.666 202.385C137.146 202.047 137.552 201.626 137.861 201.146C137.987 200.975 138.085 200.788 138.152 200.59C138.152 200.59 137.968 200.747 137.707 201.046C137.359 201.462 136.946 201.827 136.482 202.129C136.084 202.335 135.644 202.463 135.191 202.503C134.737 202.542 134.279 202.494 133.847 202.36C133.414 202.226 133.017 202.009 132.679 201.724C132.342 201.439 132.072 201.092 131.887 200.704C131.512 200.033 131.248 199.312 131.106 198.567V198.311L130.846 198.41C130.519 198.534 130.167 198.589 129.815 198.571C129.463 198.554 129.12 198.465 128.809 198.311C128.308 198.068 127.921 197.662 127.721 197.171C127.519 196.676 127.445 196.144 127.507 195.618Z" fill="#455A64"/>
<path d="M148.245 184.563C148.245 184.563 148.413 184.677 148.704 184.933C149.108 185.295 149.385 185.762 149.501 186.272V186.429L149.654 186.344C151.089 185.505 152.726 185.016 154.417 184.919C155.51 184.853 156.605 184.999 157.634 185.346C158.766 185.742 159.757 186.423 160.498 187.312C161.081 188.006 161.498 188.808 161.723 189.663C161.93 190.454 161.93 191.28 161.723 192.071V192.299H161.968C163.148 192.389 164.246 192.899 165.031 193.723C165.627 194.373 165.986 195.18 166.058 196.031C166.102 196.797 165.977 197.563 165.69 198.282C165.83 198.12 165.938 197.937 166.012 197.741C166.24 197.192 166.345 196.605 166.318 196.017C166.278 195.102 165.924 194.223 165.307 193.51C164.502 192.593 163.341 192.009 162.075 191.885L162.259 192.128C162.489 191.272 162.489 190.376 162.259 189.521C162.018 188.609 161.575 187.755 160.957 187.013C160.166 186.063 159.105 185.337 157.894 184.919C156.802 184.55 155.636 184.409 154.479 184.506C152.725 184.639 151.042 185.21 149.608 186.158H149.807C149.67 185.595 149.33 185.092 148.842 184.734C148.662 184.631 148.456 184.572 148.245 184.563V184.563Z" fill="#455A64"/>
<path d="M117.26 512.915L119.022 538.288C119.022 538.288 140.694 560.37 139.009 564.986L88.2516 545.625L90.0895 541.864L95.0366 531.777L90.4418 513.528L117.26 512.915Z" fill="#263238"/>
<path d="M100.443 534.441C99.8956 534.393 99.3481 534.535 98.9067 534.84C98.4653 535.145 98.1614 535.592 98.0539 536.094C97.9883 536.44 98.028 536.796 98.1687 537.121C98.3093 537.447 98.5452 537.73 98.8496 537.938C99.1541 538.145 99.5149 538.269 99.8913 538.296C100.268 538.323 100.645 538.251 100.979 538.088C101.288 537.935 101.552 537.715 101.75 537.447C101.948 537.179 102.073 536.87 102.115 536.547C102.157 536.224 102.115 535.896 101.992 535.592C101.869 535.287 101.668 535.015 101.408 534.798C101.247 534.667 101.061 534.567 100.858 534.503C100.656 534.439 100.442 534.414 100.229 534.427" fill="#E0E0E0"/>
<path d="M88.2516 545.625L90.0895 541.864L138.06 561.809C138.06 561.809 139.913 563.575 139.009 564.957L88.2516 545.625Z" fill="#263238"/>
<path d="M121.334 541.123C121.212 541.351 119.925 540.995 118.394 541.265C116.862 541.536 115.759 542.263 115.576 542.077C115.392 541.892 116.341 540.653 118.225 540.411C120.109 540.168 121.472 540.938 121.334 541.123Z" fill="#455A64"/>
<path d="M125.148 545.041C125.148 545.283 123.862 545.269 122.59 545.924C121.319 546.579 120.615 547.52 120.385 547.349C120.155 547.178 120.553 545.924 122.146 545.098C123.739 544.271 125.24 544.898 125.148 545.041Z" fill="#455A64"/>
<path d="M124.949 552.121C124.704 552.121 124.857 550.796 126.052 549.771C127.246 548.745 128.625 548.702 128.656 548.93C128.686 549.158 127.66 549.557 126.695 550.355C125.73 551.152 125.209 552.192 124.949 552.121Z" fill="#455A64"/>
<path d="M118.792 534.612C118.685 534.84 117.444 534.527 115.928 534.612C114.412 534.698 113.248 535.211 113.11 535.011C112.972 534.812 114.075 533.886 115.851 533.743C117.628 533.601 118.914 534.413 118.792 534.612Z" fill="#455A64"/>
<path d="M53.7596 333.31C50.6262 338.094 48.4276 343.356 47.2656 348.853C45.7735 356.19 46.2576 363.757 48.6747 370.878C50.6811 376.377 78.6943 447.054 78.6943 447.054L81.8954 484.166L91.5752 530.737L121.901 529.313C121.901 529.313 119.098 455.972 117.888 445.259C116.571 433.633 99.6008 362.202 99.6008 362.202L110.674 336.487L59.1662 320.502L53.7596 333.31Z" fill="#263238"/>
<path d="M138.626 562.521C138.534 562.706 127.599 558.247 114.121 552.549C100.642 546.85 89.921 542.063 90.0129 541.878C90.1048 541.693 101.041 546.152 114.519 551.851C127.997 557.549 138.718 562.336 138.626 562.521Z" fill="#455A64"/>
<path d="M121.901 529.412C116.876 530.011 111.819 530.358 106.753 530.452C101.703 530.796 96.6365 530.891 91.5752 530.737C96.6016 530.149 101.658 529.806 106.723 529.712C111.773 529.368 116.84 529.268 121.901 529.412V529.412Z" fill="#455A64"/>
<path d="M144.768 248.572L143.053 244.968C131.688 240.566 123.387 236.163 116.464 236.277L111.119 241.135C104.992 244.754 92.7392 250.31 89.4922 254.57L74.4824 281.553L53.7443 326.771C51.8298 329.535 47.7404 333.623 52.2893 337.698L93.6429 341.972L108.346 342.214C111.41 341.844 119.236 343.909 120.17 339.365C121.84 331.358 149.087 277.549 151.048 270.512L150.19 258.929L144.768 248.572Z" fill="#E0E0E0"/>
<path d="M149.868 270.383C146.805 277.977 144.615 289.716 133.128 296.768C126.772 300.657 117.429 303.008 110.154 305.145C101.561 307.681 90.1355 310.915 90.1355 310.915L82.8756 323.28L95.7871 324.848C95.7871 324.848 110.981 320.346 116.969 318.024C129.866 313.037 125.439 314.661 129.896 311.869C136.283 308.165 144.998 297.252 151.339 269.657" fill="#263238"/>
<path d="M119.405 250.111C118.062 250.195 116.714 250.171 115.376 250.039C112.911 249.94 109.495 249.826 105.743 250.039C102.535 250.174 99.3447 250.546 96.2006 251.151C94.9177 251.495 93.6134 251.766 92.295 251.963C92.295 251.963 92.6167 251.763 93.2599 251.507C94.1772 251.172 95.1128 250.882 96.0628 250.638C99.2148 249.879 102.444 249.43 105.697 249.299C108.941 249.154 112.192 249.235 115.422 249.541C116.768 249.597 118.103 249.788 119.405 250.111V250.111Z" fill="#263238"/>
<path d="M140.847 244.298C139.35 244.197 137.865 243.982 136.406 243.657C133.679 243.187 129.911 242.56 125.684 242.076C122.128 241.664 118.547 241.469 114.963 241.492C112.206 241.492 110.506 241.72 110.491 241.606C110.475 241.492 110.889 241.463 111.67 241.321C112.755 241.152 113.849 241.038 114.948 240.979C118.576 240.783 122.217 240.902 125.822 241.335C129.429 241.754 133.008 242.358 136.543 243.144C138.015 243.397 139.457 243.783 140.847 244.298V244.298Z" fill="#263238"/>
<path d="M89.4922 254.556C89.392 254.857 89.2585 255.148 89.094 255.425L87.7921 257.861C86.6281 260.055 85.0352 263.103 83.0747 266.822C79.1232 274.415 73.885 284.986 67.9883 296.625C65.0323 302.452 62.1682 308.023 59.4726 312.952C58.1094 315.445 56.8229 317.81 55.5516 319.99C54.2804 322.169 53.0551 324.178 52.1361 326.087C51.295 327.784 50.7372 329.59 50.482 331.444C50.2975 332.849 50.3962 334.274 50.773 335.646C51.118 336.813 51.6833 337.912 52.4424 338.895C52.1861 338.685 51.9597 338.445 51.7685 338.182C51.1823 337.44 50.7463 336.605 50.482 335.718C50.0441 334.332 49.8934 332.882 50.0378 331.444C50.2649 329.53 50.8235 327.664 51.692 325.916C52.5956 323.964 53.8209 321.941 55.0309 319.747C56.2409 317.553 57.5427 315.189 58.8752 312.695C61.5402 307.695 64.3737 302.167 67.3297 296.355C73.2111 284.715 78.5411 274.173 82.6459 266.637C84.6676 262.861 86.383 259.841 87.593 257.775L89.0174 255.396C89.1423 255.101 89.3015 254.819 89.4922 254.556V254.556Z" fill="#455A64"/>
<path d="M77.8672 386.677C80.0115 387.304 151.997 361.319 151.997 361.319L213.032 404.485L217.489 406.152L227.429 380.508C227.429 380.508 184.713 341.174 170.224 328.352C166.394 324.976 158.997 321.528 152.457 322.397C137.279 324.434 79.6286 342.342 79.6286 342.342L77.8672 386.677Z" fill="#263238"/>
<path opacity="0.3" d="M81.4053 380.736C86.2144 383.663 91.8476 385.2 97.5944 385.153L104.824 384.469L103.415 378.414C103.415 378.414 86.2145 381.463 81.4053 380.736Z" fill="black"/>
<path d="M115.039 374.824C114.605 375.099 114.13 375.315 113.63 375.465C112.727 375.836 111.379 376.32 109.694 376.89C105.314 378.38 100.812 379.537 96.2313 380.352C91.6395 381.198 86.943 381.443 82.2783 381.078C81.3899 381.007 80.5782 380.893 79.8737 380.779C79.1691 380.665 78.5718 380.565 78.097 380.452C77.5676 380.376 77.052 380.232 76.5654 380.024C76.5654 379.896 78.7556 380.352 82.2936 380.551C86.9117 380.757 91.5397 380.446 96.0781 379.625C100.615 378.799 105.095 377.724 109.495 376.406C112.911 375.366 114.994 374.724 115.039 374.824Z" fill="#455A64"/>
<path d="M153.1 351.588C153.059 353.203 152.927 354.816 152.702 356.418C152.549 359.068 152.809 361.233 152.579 361.262C151.502 358.083 151.687 354.651 153.1 351.588V351.588Z" fill="#455A64"/>
<path d="M194.775 192.441L185.187 206.217L204.042 213.355L212.006 193.695L200.197 189.649L194.775 192.441Z" fill="#AE7461"/>
<path d="M186.704 180.702C186.234 179.916 186.113 178.991 186.367 178.123C186.922 176.994 187.775 176.014 188.848 175.274C188.848 175.274 189.614 179.548 189.491 179.676L186.704 180.702Z" fill="#AE7461"/>
<path d="M195.327 195.262L188.45 184.819L188.863 176.271C188.863 176.271 188.496 169.86 191.804 168.806C191.804 168.806 193.795 167.823 195.051 169.091C195.051 169.091 195.419 167.481 198.022 167.581L199.845 168.507C199.845 168.507 201.055 167.082 202.326 167.082C203.363 167.255 204.32 167.717 205.068 168.407C205.068 168.407 205.726 167.154 207.717 167.695C209.709 168.236 211.822 171.67 212.312 172.852C213.558 177.19 214.328 181.634 214.61 186.116C214.411 188.58 211.546 194.664 211.546 194.664L195.327 195.262Z" fill="#AE7461"/>
<path d="M189.445 176.927C189.445 176.927 186.168 179.776 185.463 180.617C184.829 181.907 184.286 183.235 183.84 184.591C183.334 185.546 181.848 186.7 183.089 187.441C183.707 187.754 184.422 187.859 185.113 187.74C185.805 187.621 186.432 187.284 186.888 186.785C188.322 184.635 189.611 182.403 190.747 180.104L189.445 176.927Z" fill="#FFBF9D"/>
<path d="M185.264 186.771C184.455 187.945 184.175 189.367 184.483 190.731C184.66 191.348 185.062 191.888 185.622 192.257C186.181 192.627 186.862 192.803 187.546 192.754C187.523 193.148 187.597 193.54 187.763 193.903C187.93 194.265 188.183 194.586 188.505 194.843C188.826 195.099 189.207 195.283 189.617 195.38C190.027 195.478 190.456 195.486 190.87 195.404C190.87 195.404 189.951 196.345 191.651 196.971L196.491 191.187C196.491 191.187 197.165 190.674 197.134 188.808C197.134 187.569 196.491 185.546 194.683 186.059C194.683 186.059 194.438 183.879 192.784 183.366C191.13 182.853 190.64 183.936 190.64 183.936C190.478 183.662 190.224 183.446 189.917 183.32C189.61 183.194 189.266 183.165 188.94 183.238C187.561 183.366 185.264 186.771 185.264 186.771Z" fill="#FFBF9D"/>
<path d="M119.282 271.637C116.71 269.016 115.273 265.601 115.247 262.052C115.222 258.504 116.61 255.072 119.144 252.419C120.064 251.464 121.145 250.655 122.345 250.025C130.371 245.879 169.488 232.673 169.488 232.673L189.507 196.971L210.658 201.559C210.658 201.559 194.913 246.635 183.196 253.302C169.749 260.966 146.438 272.791 137.922 275.284" fill="#E0E0E0"/>
<path d="M137.922 275.227C138.085 275.135 138.26 275.064 138.443 275.013C138.795 274.885 139.331 274.714 139.974 274.444C141.337 273.917 143.359 273.119 145.902 271.979C151.002 269.728 158.308 266.209 167.206 261.565C171.663 259.243 176.534 256.65 181.695 253.729C183.024 253.054 184.241 252.205 185.31 251.208C186.394 250.153 187.392 249.024 188.297 247.831C190.178 245.301 191.882 242.66 193.397 239.924C196.677 233.994 199.632 227.912 202.25 221.703C205.022 215.25 207.717 208.44 210.245 201.388L210.52 201.858L196.552 198.88L189.415 197.285L189.859 197.1C182.752 209.722 175.998 221.746 169.81 232.716V232.844H169.687C158.966 236.463 149.103 239.967 140.342 243.059C135.961 244.64 131.857 246.164 128.089 247.66C126.205 248.415 124.413 249.156 122.759 249.968C121.188 250.73 119.814 251.799 118.731 253.102C116.82 255.292 115.69 257.981 115.499 260.796C115.383 262.886 115.732 264.977 116.525 266.936C117.228 268.567 118.177 270.098 119.343 271.48C119.343 271.48 119.251 271.409 119.098 271.238C118.945 271.067 118.685 270.811 118.394 270.455C116.802 268.549 115.748 266.303 115.328 263.922C114.908 261.541 115.135 259.099 115.989 256.821C116.556 255.384 117.368 254.042 118.394 252.846C119.496 251.484 120.908 250.365 122.529 249.569C124.199 248.729 125.991 247.974 127.874 247.204C131.627 245.68 135.732 244.127 140.127 242.532C148.873 239.312 158.736 235.85 169.442 232.203L169.243 232.36C175.37 221.333 182.17 209.295 189.246 196.644L189.384 196.402H189.675L196.874 197.94L210.842 200.918L211.271 201.017L211.133 201.402C208.59 208.487 205.91 215.273 203.092 221.76C200.459 227.984 197.479 234.076 194.163 240.01C192.629 242.771 190.894 245.432 188.97 247.974C188.05 249.197 187.026 250.35 185.907 251.421C184.794 252.446 183.531 253.319 182.155 254.014C176.978 256.864 172.092 259.485 167.604 261.793C158.66 266.38 151.308 269.828 146.162 272.022C143.589 273.119 141.567 273.874 140.158 274.358C139.469 274.615 138.917 274.757 138.626 274.871L137.922 275.227Z" fill="#263238"/>
<path d="M297.899 135.683C294.499 137.549 249.285 167.894 245.41 178.209C241.535 188.523 256.009 263.246 256.009 263.246L288.173 261.821L279.611 190.817L343.939 155.386L348.274 118.345L297.899 135.683Z" fill="#263238"/>
<path d="M335.959 151.126L372.121 187.312C372.121 187.312 377.083 203.753 381.311 214.509C385.538 225.265 392.675 243.187 392.675 243.187L400.471 267.007L425.62 261.836C425.62 261.836 416.231 223.726 413.811 209.038C411.875 198.604 409.142 188.311 405.633 178.237L385.63 131.224L363.865 104.683L335.959 151.126Z" fill="#263238"/>
<path opacity="0.3" d="M278.692 148.847C278.692 148.847 306.92 158.919 316.278 157.11C325.636 155.301 341.244 133.874 341.244 133.874L364.218 155.514L392.032 146.169L389.78 137.82C389.78 137.82 349.867 128.232 349.79 128.118C349.713 128.004 335.332 128.118 335.332 128.118L311.163 143.633L285.003 143.946L278.692 148.847Z" fill="black"/>
<path d="M415.619 243.443L423.951 267.919L436.525 285.513C436.74 285.814 436.887 286.152 436.955 286.507C437.024 286.862 437.013 287.227 436.924 287.578C436.835 287.929 436.67 288.26 436.438 288.549C436.206 288.839 435.912 289.08 435.576 289.26V289.26C435.184 289.468 434.745 289.586 434.294 289.603C433.844 289.62 433.396 289.537 432.987 289.36C427.703 287.066 408.696 278.632 407.777 276.737C406.858 274.843 397.163 251.421 397.163 251.421L415.619 243.443Z" fill="#263238"/>
<path d="M435.576 289.26L407.179 275.099L407.547 276.125C407.875 277.018 408.531 277.775 409.4 278.262C411.728 279.544 418.222 282.963 432.911 289.388C433.332 289.572 433.796 289.657 434.26 289.634C434.725 289.612 435.177 289.483 435.576 289.26V289.26Z" fill="#E0E0E0"/>
<path d="M425.727 280.541C425.999 279.554 426.55 278.653 427.323 277.931C428.096 277.21 429.063 276.694 430.123 276.438C430.123 276.367 429.725 276.281 429.097 276.438C428.26 276.608 427.495 276.999 426.891 277.564C426.291 278.129 425.872 278.84 425.681 279.615C425.544 280.171 425.635 280.541 425.727 280.541Z" fill="white"/>
<path d="M428.791 283.205C428.959 283.205 429.51 282.208 430.72 281.424C431.506 281.005 432.319 280.634 433.156 280.313C432.669 280.202 432.16 280.203 431.674 280.318C431.188 280.432 430.74 280.655 430.368 280.969C428.959 281.866 428.607 283.177 428.791 283.205Z" fill="white"/>
<path d="M420.719 277.464C421.564 276.428 422.491 275.452 423.491 274.543C424.626 273.772 425.818 273.076 427.06 272.463C425.597 272.641 424.221 273.207 423.096 274.094C421.972 274.981 421.146 276.151 420.719 277.464V277.464Z" fill="white"/>
<path d="M417.518 270.227C417.64 270.355 418.881 269.329 420.734 268.674C422.587 268.019 424.226 267.962 424.226 267.791C422.979 267.501 421.662 267.627 420.505 268.147C419.276 268.491 418.219 269.227 417.518 270.227V270.227Z" fill="white"/>
<path d="M271.433 185.888C273.192 185.881 274.907 186.406 276.318 187.384C277.875 188.142 279.135 189.339 279.918 190.803C279.734 190.945 278.233 189.378 275.89 187.953C273.546 186.529 271.371 186.073 271.433 185.888Z" fill="#455A64"/>
<path d="M399.69 191.145C399.69 191.216 399.184 191.814 398.02 192.569C396.499 193.48 394.795 194.095 393.012 194.379C391.233 194.663 389.412 194.619 387.651 194.25C386.903 194.151 386.193 193.882 385.584 193.467C387.991 193.859 390.448 193.916 392.874 193.638C395.261 193.11 397.556 192.27 399.69 191.145Z" fill="#455A64"/>
<path d="M262.243 243.557L263.315 266.238C263.315 266.238 238.809 274.786 238.641 279.059L285.998 278.703L284.176 246.35L262.243 243.557Z" fill="#263238"/>
<path d="M285.998 278.718L285.83 275.156L240.494 276.823C240.494 276.823 238.396 277.692 238.641 279.074L285.998 278.718Z" fill="#E0E0E0"/>
<path d="M262.549 266.01C262.549 266.223 263.713 266.323 264.847 267.007C265.98 267.691 266.608 268.588 266.822 268.503C267.037 268.417 266.685 267.164 265.291 266.366C263.897 265.568 262.488 265.825 262.549 266.01Z" fill="white"/>
<path d="M257.587 267.961C257.587 268.175 258.552 268.531 259.333 269.386C260.114 270.241 260.359 271.252 260.604 271.238C260.849 271.224 260.956 270.013 259.961 268.902C258.965 267.791 257.602 267.762 257.587 267.961Z" fill="white"/>
<path d="M254.815 273.518C255.029 273.518 255.335 272.478 254.815 271.309C254.294 270.141 253.13 269.671 253.023 269.885C252.915 270.098 253.605 270.683 254.095 271.651C254.585 272.62 254.585 273.489 254.815 273.518Z" fill="white"/>
<path d="M259.961 75.9906L290.302 115.268L302.555 123.574L298.925 132.392L281.786 146.553C281.786 146.553 310.182 157.509 320.628 151.183C331.074 144.858 341.029 129.529 341.029 129.529L366.638 152.223L398.802 140.313C398.802 140.313 384.726 114.2 365.275 99.312L353.741 66.2887L332.299 35.7586L306.261 43.6511L269.227 67.6421L259.961 75.9906Z" fill="#6460AA"/>
<path d="M284.13 61.2455C285.876 61.2455 305.388 71.8733 305.388 71.8733L309.646 49.079L306.476 43.7081L312.801 45.8451L322.987 54.9913L348.335 92.1745C346.528 101.634 340.294 115.681 340.11 120.667C340.11 120.667 313.169 118.53 306.981 106.421C300.794 94.3115 287.637 72.2295 287.637 72.2295L284.13 61.2455Z" fill="white"/>
<path d="M310.979 85.8349C310.979 87.8721 318.116 116.265 324.059 117.804C330.001 119.343 339.268 120.796 339.268 120.796V107.162L315.344 81.105L314.639 74.1243L305.863 73.184L303.704 83.3132L310.979 85.8349Z" fill="#263238"/>
<path d="M267.512 70.7194C267.512 70.7194 261.615 75.5347 259.961 75.9906C258.307 76.4465 252.042 92.2315 252.042 92.2315L235.976 129.344L207.717 164.418L223.631 178.209C223.631 178.209 259.272 144.758 261.783 135.769L279.336 101.99L267.512 70.7194Z" fill="#6460AA"/>
<path d="M341.198 128.118C341.106 128.033 342.591 126.694 344.766 124.172C346.941 121.65 349.836 118.246 352.884 114.299L360.68 104.156C361.691 102.859 362.533 101.834 363.13 101.136C363.409 100.748 363.744 100.398 364.126 100.096C363.235 101.609 362.238 103.065 361.139 104.455C359.24 107.105 356.544 110.766 353.481 114.727C350.895 118.13 348.108 121.397 345.134 124.514C343.985 125.711 343.005 126.622 342.285 127.235C341.565 127.848 341.228 128.161 341.198 128.118Z" fill="#263238"/>
<path d="M322.634 122.876C321.118 122.827 319.61 122.64 318.131 122.32C315.375 121.864 311.591 121.109 307.41 120.083C303.229 119.058 299.599 117.946 296.949 117.077C295.499 116.664 294.094 116.125 292.753 115.467C294.243 115.727 295.708 116.099 297.133 116.579C299.798 117.32 303.505 118.345 307.625 119.428C311.745 120.511 315.482 121.28 318.208 121.878C319.711 122.093 321.192 122.427 322.634 122.876V122.876Z" fill="#263238"/>
<path d="M266.608 87.1028C267.008 87.3943 267.363 87.7345 267.665 88.1143C268.308 88.8124 269.196 89.8096 270.299 91.0633C272.505 93.5707 275.507 97.0753 278.769 101.036C282.031 104.996 284.895 108.472 287.055 111.008C288.097 112.305 288.939 113.359 289.49 114.1C289.82 114.461 290.093 114.864 290.302 115.297C289.905 114.997 289.55 114.652 289.245 114.271C288.602 113.587 287.714 112.575 286.611 111.322C284.405 108.814 281.403 105.324 278.141 101.435C274.879 97.5455 272.015 94.0123 269.855 91.4622C268.814 90.1658 267.986 89.1116 267.42 88.3707C267.084 87.9872 266.811 87.56 266.608 87.1028V87.1028Z" fill="#263238"/>
<path d="M320.046 52.8116C320.193 54.4756 320.193 56.148 320.046 57.8121C320.046 60.9036 319.862 65.1633 319.663 69.8788C319.663 71.5172 319.525 73.0843 319.449 74.5659V74.9506H319.096C315.252 74.5374 311.944 74.1385 309.585 73.8393C308.327 73.744 307.08 73.5389 305.863 73.2267C307.122 73.1787 308.383 73.2359 309.631 73.3977C311.974 73.5687 315.267 73.8678 319.081 74.2382L318.698 74.5802C318.698 73.1555 318.821 71.5314 318.882 69.8931C319.081 65.1775 319.295 60.9178 319.51 57.8406C319.558 56.1544 319.737 54.4737 320.046 52.8116V52.8116Z" fill="#263238"/>
<path d="M289.812 76.4607C291.104 76.9939 292.34 77.6377 293.503 78.384C295.724 79.6519 298.772 81.447 302.111 83.47L303.642 84.3817L303.045 84.5812C303.964 81.447 304.577 78.5264 305.006 76.4749C305.188 75.3554 305.48 74.2539 305.879 73.184C305.896 74.3181 305.778 75.4506 305.526 76.5604C305.107 79.3365 304.529 82.09 303.796 84.8091L303.658 85.2792L303.198 85.0086L301.667 84.0826C298.343 82.0596 295.341 80.2075 293.197 78.8256C291.987 78.1431 290.854 77.3509 289.812 76.4607V76.4607Z" fill="#263238"/>
<path d="M332.207 35.7586C332.207 35.7586 339.268 33.5504 343.005 35.1175C350.219 38.1805 396.948 61.5732 398.893 62.8269C400.839 64.0805 426.187 102.119 426.187 102.119L408.803 112.091L384.021 80.464L338.839 64.6647C338.839 64.6647 331.993 56.4587 330.89 49.5492C330.317 44.9168 330.765 40.2245 332.207 35.7586V35.7586Z" fill="#6460AA"/>
<path d="M353.741 66.2887C354.435 67.7822 355.044 69.3087 355.564 70.8619L359.853 81.9171C363.253 90.5504 365.811 97.5882 365.443 97.7307C365.222 97.3444 365.042 96.9388 364.907 96.5197C364.509 95.5794 364.065 94.4682 363.529 93.2003C362.38 90.351 360.787 86.5044 359.102 82.1735C357.417 77.8426 356.039 73.9106 355.028 71.0328C354.553 69.6082 354.201 68.4115 353.987 67.5852C353.846 67.1643 353.764 66.7288 353.741 66.2887V66.2887Z" fill="#263238"/>
<path d="M344.705 56.9716C343.844 56.4124 343.084 55.7296 342.453 54.9486C340.799 53.1681 339.361 51.2236 338.165 49.1502C336.986 47.0732 336.047 44.8861 335.362 42.6254C335.007 41.7112 334.821 40.7479 334.811 39.7761C335.996 42.8539 337.361 45.8692 338.9 48.8083C340.683 51.6205 342.62 54.3452 344.705 56.9716V56.9716Z" fill="#263238"/>
<path d="M337.476 126.252C336.132 126.607 334.75 126.822 333.356 126.893C330.008 127.21 326.641 127.324 323.278 127.235C319.912 127.138 316.556 126.843 313.23 126.352C311.841 126.208 310.474 125.916 309.156 125.483C310.547 125.495 311.935 125.609 313.307 125.825C315.849 126.095 319.433 126.38 323.293 126.494C327.153 126.608 330.752 126.494 333.31 126.366C334.693 126.228 336.086 126.19 337.476 126.252V126.252Z" fill="#263238"/>
<path d="M311.163 45.3465H311.821C312.464 45.3807 313.104 45.4569 313.736 45.5744C316.09 46.1182 318.349 46.9721 320.444 48.1103C327.618 52.2843 334.064 57.4537 339.559 63.4394L339.789 63.6816L339.543 63.9096C338.502 64.8926 337.369 65.9611 336.235 67.058L335.959 66.4454H340.309L340.401 66.6734C341.764 69.9786 343.204 73.4404 344.674 76.9878C346.328 80.9911 347.937 84.8803 349.438 88.5417V88.6272C348.838 93.8825 347.43 99.0306 345.256 103.914C343.592 107.768 342.21 111.724 341.121 115.752C340.437 118.416 340.118 121.149 340.171 123.887C340.171 125.796 340.462 126.836 340.401 126.836C340.306 126.597 340.239 126.348 340.202 126.095C340.058 125.365 339.961 124.628 339.911 123.887C339.744 121.125 339.986 118.354 340.631 115.653C341.659 111.588 342.99 107.594 344.613 103.7C346.726 98.8657 348.088 93.776 348.657 88.5844V88.7269C347.125 85.0656 345.593 81.1763 343.863 77.1873C342.402 73.6257 340.983 70.1828 339.605 66.8586L339.972 67.0865H334.979L335.623 66.4882L338.946 63.354V63.8241C333.525 57.8611 327.199 52.6636 320.169 48.3952C318.129 47.2407 315.935 46.3402 313.644 45.7169C312.066 45.4889 311.163 45.4177 311.163 45.3465Z" fill="#263238"/>
<path d="M281.25 102.888C277.853 103.423 274.418 103.719 270.973 103.771C267.536 104.063 264.08 104.111 260.635 103.914C264.035 103.369 267.477 103.074 270.927 103.03C274.359 102.729 277.811 102.682 281.25 102.888Z" fill="#263238"/>
<path d="M316.891 117.505C316.668 117.495 316.447 117.461 316.232 117.405C315.596 117.298 314.966 117.155 314.348 116.978C312.052 116.328 309.858 115.399 307.824 114.214C304.763 112.422 301.914 110.336 299.323 107.988C296.352 105.353 293.273 102.29 290.011 98.8989L289.766 98.6424L290.011 98.4002C291.298 97.175 292.385 95.6222 293.809 94.226L294.284 94.8101L293.044 95.437L288.342 97.8019L287.913 98.0156L287.76 97.5882C285.198 90.0016 283.323 82.2293 282.154 74.3522C281.71 71.3747 281.465 68.9671 281.327 67.3145C281.25 66.4882 281.235 65.8898 281.204 65.4197C281.167 65.1978 281.167 64.972 281.204 64.7501C281.287 64.9605 281.333 65.1816 281.342 65.4055L281.602 67.286C281.817 68.9386 282.154 71.3177 282.659 74.281C283.989 82.1035 285.945 89.8227 288.51 97.3745L287.928 97.1608L292.645 94.7816L293.886 94.1548L296.122 93.0293L294.376 94.7389C293.013 96.0638 291.91 97.5882 290.562 98.9131V98.4145C293.809 101.748 296.842 104.882 299.752 107.518C302.287 109.864 305.068 111.969 308.053 113.801C310.807 115.399 313.78 116.645 316.891 117.505Z" fill="#263238"/>
<path d="M339.498 120.796C338.033 120.829 336.57 120.714 335.132 120.454C331.627 120.009 328.166 119.309 324.779 118.36C321.377 117.408 318.112 116.078 315.053 114.399C313.753 113.759 312.553 112.959 311.484 112.02C311.561 111.92 313.016 112.775 315.329 113.943C318.421 115.461 321.662 116.702 325.008 117.647C332.866 119.827 339.543 120.525 339.498 120.796Z" fill="#263238"/>
<g opacity="0.3">
<path d="M343.158 126.509C348.372 125.106 352.952 122.16 356.204 118.119C359.457 114.078 361.206 109.161 361.185 104.113" fill="black"/>
</g>
<g opacity="0.3">
<path d="M324.641 50.7031C331.353 53.9273 337.196 58.5196 341.734 64.1375C341.188 64.3764 340.761 64.7991 340.539 65.32L342.76 65.9041C344.373 72.0301 345.976 78.156 347.569 84.282L339.957 66.2175L336.281 66.5737L339.727 63.7244C335.537 60.3667 331.739 56.6088 328.393 52.5124" fill="black"/>
</g>
<path opacity="0.3" d="M293.917 78.9396L305.863 89.1685L307.716 75.1928L322.068 76.0191L320 58.8663L319.142 73.355L305.863 72.6711L303.413 84.6951" fill="black"/>
<path opacity="0.3" d="M355.013 70.349L350.939 58.8663L359.516 71.9161L355.013 70.349Z" fill="black"/>
<path d="M391.741 68.6252C390.549 69.4254 389.49 70.3856 388.601 71.4745C387.907 72.6617 387.392 73.932 387.069 75.2498C386.978 75.2498 386.809 74.7796 386.855 73.9818C386.939 72.941 387.307 71.9373 387.923 71.0651C388.54 70.1928 389.384 69.4807 390.378 68.9956C391.174 68.5824 391.71 68.5397 391.741 68.6252Z" fill="#263238"/>
<path d="M264.219 3.10573C263.273 2.62481 262.19 2.42951 261.12 2.54694C260.049 2.66437 259.045 3.08869 258.245 3.76106C256.66 3.65674 255.082 4.04887 253.764 4.87501C252.445 5.70116 251.462 6.91382 250.97 8.31993C249.879 8.36344 248.819 8.66834 247.891 9.20509C246.964 9.74184 246.202 10.4922 245.678 11.3836C245.154 12.275 244.887 13.277 244.902 14.2928C244.916 15.3085 245.213 16.3035 245.763 17.1812C244.749 17.6024 243.903 18.3091 243.344 19.2016C242.785 20.0942 242.542 21.1274 242.649 22.1554C242.755 23.1835 243.206 24.1544 243.938 24.9311C244.67 25.7078 245.646 26.2511 246.728 26.4842C245.937 27.394 245.537 28.5439 245.605 29.712C245.673 30.88 246.204 31.9832 247.095 32.8086C247.986 33.6339 249.174 34.1229 250.43 34.1809C251.686 34.239 252.921 33.8621 253.896 33.123L266.654 8.22021C266.866 7.23812 266.746 6.21891 266.31 5.30294C265.874 4.38698 265.143 3.61933 264.219 3.10573V3.10573Z" fill="#263238"/>
<path d="M253.666 34.049C251.099 29.6088 250.422 24.4326 251.77 19.5495C253.118 14.6663 256.392 10.4337 260.941 7.69309L261.875 7.13748C272.367 1.59561 283.318 6.79556 288.954 16.7111L306.476 43.7794L309.662 49.0078L306.093 71.3747L287.224 64.6931L284.405 60.8893C284.405 60.8893 273.684 65.3342 267.297 56.359C264.203 51.9711 258.613 42.6111 253.666 34.049Z" fill="#FFBF9D"/>
<path d="M284.436 60.8893C288.91 58.1662 292.454 54.3109 294.652 49.7771C294.652 49.7771 296.183 58.097 286.044 63.0833L284.436 60.8893Z" fill="#FF9A6C"/>
<path d="M262.304 40.7306C262.532 41.0701 262.894 41.3127 263.312 41.4059C263.731 41.4992 264.172 41.4358 264.54 41.2292C264.731 41.1416 264.901 41.0178 265.037 40.8659C265.174 40.7139 265.275 40.5371 265.334 40.3467C265.394 40.1563 265.409 39.9565 265.381 39.7602C265.352 39.5638 265.28 39.3751 265.168 39.2062C264.938 38.8658 264.573 38.6229 264.152 38.5297C263.731 38.4365 263.288 38.5003 262.917 38.7076C262.727 38.7965 262.559 38.9212 262.424 39.0738C262.289 39.2263 262.189 39.4034 262.132 39.5936C262.074 39.7839 262.06 39.9833 262.089 40.179C262.119 40.3747 262.192 40.5626 262.304 40.7306Z" fill="#263238"/>
<path d="M259.042 37.7246C259.333 37.7246 259.869 36.4424 261.37 35.5449C262.871 34.6474 264.433 34.6901 264.433 34.4194C264.433 34.1487 264.066 34.0917 263.361 34.0633C262.429 34.0372 261.51 34.2757 260.727 34.7471C259.947 35.2126 259.347 35.8959 259.011 36.6988C258.781 37.3257 258.904 37.7246 259.042 37.7246Z" fill="#263238"/>
<path d="M275.522 33.6216C275.75 33.9611 276.112 34.2037 276.53 34.297C276.949 34.3903 277.39 34.3268 277.758 34.1202C277.949 34.0326 278.119 33.9088 278.255 33.7569C278.392 33.6049 278.493 33.4281 278.552 33.2377C278.611 33.0473 278.627 32.8475 278.598 32.6512C278.57 32.4548 278.498 32.2661 278.386 32.0973C278.155 31.7568 277.791 31.5139 277.37 31.4207C276.949 31.3275 276.505 31.3914 276.135 31.5986C275.945 31.6876 275.777 31.8123 275.642 31.9648C275.507 32.1174 275.407 32.2944 275.349 32.4847C275.292 32.6749 275.277 32.8743 275.307 33.07C275.337 33.2658 275.41 33.4536 275.522 33.6216Z" fill="#263238"/>
<path d="M273.194 28.9488C273.485 28.9488 274.036 27.6666 275.522 26.7691C277.008 25.8715 278.585 25.9 278.585 25.6436C278.585 25.3872 278.233 25.3159 277.528 25.2874C276.591 25.2584 275.666 25.4971 274.879 25.9713C274.104 26.4412 273.504 27.1231 273.163 27.923C272.995 28.5356 273.056 28.9345 273.194 28.9488Z" fill="#263238"/>
<path d="M275.43 42.2122C274.483 42.4583 273.573 42.8124 272.719 43.2665C272.321 43.4517 271.907 43.6084 271.678 43.3947C271.386 43.0534 271.219 42.6339 271.203 42.198C270.958 41.1153 270.713 39.9898 270.452 38.8073C269.903 35.9032 269.104 33.0447 268.063 30.2595C268.359 33.2158 268.907 36.1456 269.702 39.021C269.978 40.1892 270.253 41.3147 270.514 42.3832C270.571 42.9544 270.842 43.4889 271.279 43.8933C271.421 43.9837 271.582 44.0434 271.752 44.0681C271.922 44.0927 272.095 44.0817 272.26 44.0358C272.517 43.9689 272.76 43.863 272.98 43.7224C273.864 43.3215 274.688 42.8137 275.43 42.2122V42.2122Z" fill="#263238"/>
<path d="M270.406 24.9883C270.835 25.2447 271.938 24.1477 273.47 23.236C275.001 22.3242 276.533 21.8113 276.533 21.3839C276.533 21.1702 275.997 20.9993 275.231 21.0135C274.267 21.07 273.333 21.3544 272.52 21.8398C271.706 22.314 271.045 22.9833 270.606 23.7773C270.238 24.3899 270.223 24.9028 270.406 24.9883Z" fill="#263238"/>
<path d="M256.729 33.7356C257.189 33.9208 258.077 33.0375 259.363 32.3109C260.65 31.5844 261.891 31.3279 261.952 30.8863C261.952 30.6584 261.6 30.4162 260.926 30.3449C260.065 30.2805 259.204 30.4646 258.46 30.8721C257.711 31.2733 257.108 31.8736 256.729 32.5959C256.469 33.2085 256.515 33.6359 256.729 33.7356Z" fill="#263238"/>
<path d="M251.705 29.3477C251.705 29.3477 250.342 22.139 252.349 19.0475C254.799 15.3149 258.843 18.0218 261.538 15.1012C264.234 12.1807 266.639 8.60486 271.8 8.96102C277.436 9.34567 276.962 12.2804 279.994 16.0842C292.247 31.7553 298.634 34.4622 294.223 26.2562C293.733 25.3444 295.755 23.179 293.687 19.4037C290.961 14.5171 287.269 8.81855 283.9 6.2257C280.969 4.04759 277.328 2.86189 273.577 2.86353C266.501 2.43614 259.9 6.31118 255.734 9.40266C251.568 12.4941 246.375 22.4951 251.705 29.3477Z" fill="#263238"/>
<path d="M293.503 26.4414C293.285 26.1024 293.143 25.7257 293.086 25.3341C293.028 24.9425 293.057 24.5441 293.17 24.1632C293.283 23.7823 293.478 23.4267 293.744 23.1179C294.009 22.8092 294.339 22.5537 294.713 22.3669C296.643 21.4409 299.308 21.1845 301.621 24.7318C305.71 31.043 298.052 33.5646 297.929 33.3937C297.807 33.2227 295.188 29.1767 293.503 26.4414Z" fill="#FFBF9D"/>
<path d="M297.868 30.1882C297.868 30.1882 298.037 30.1882 298.297 30.1882C298.649 30.1396 298.968 29.966 299.185 29.7038C299.454 29.2005 299.574 28.64 299.534 28.0794C299.493 27.5188 299.294 26.9781 298.956 26.5126C298.627 25.9498 298.166 25.4629 297.608 25.088C297.415 24.9275 297.184 24.8126 296.933 24.7531C296.682 24.6936 296.42 24.6912 296.168 24.7461C296.009 24.7887 295.871 24.882 295.779 25.0097C295.687 25.1373 295.645 25.2911 295.663 25.4441C295.663 25.6721 295.816 25.7718 295.785 25.8003C295.755 25.8288 295.571 25.8003 295.464 25.4869C295.394 25.3122 295.394 25.1203 295.464 24.9455C295.566 24.7092 295.764 24.5199 296.015 24.4184C296.326 24.3083 296.662 24.2766 296.991 24.3266C297.319 24.3767 297.627 24.5067 297.884 24.7033C298.522 25.086 299.048 25.6097 299.415 26.2277C299.808 26.7737 300.017 27.4158 300.017 28.0726C300.017 28.7294 299.808 29.3715 299.415 29.9175C299.262 30.0673 299.076 30.1843 298.87 30.2606C298.664 30.3368 298.442 30.3705 298.22 30.3592C297.975 30.3307 297.853 30.2167 297.868 30.1882Z" fill="#FF9A6C"/>
<path d="M285.049 14.5456C284.655 15.6333 283.976 16.6125 283.073 17.3949C282.605 17.7785 282.004 17.9902 281.38 17.9902C280.757 17.9902 280.155 17.7785 279.688 17.3949C279.305 17.0103 279.075 16.4404 278.539 16.2979C278.003 16.1555 277.314 16.6398 276.793 17.0387C275.87 17.6932 274.732 18.032 273.572 17.9983C272.412 17.9645 271.299 17.5603 270.422 16.8535C270.339 17.3392 270.063 17.7784 269.649 18.0843C269.235 18.3902 268.713 18.5407 268.186 18.5061C267.134 18.4022 266.103 18.1625 265.122 17.7938C264.624 17.6034 264.083 17.5323 263.548 17.5871C263.012 17.6418 262.501 17.8207 262.059 18.1072C261.615 18.4634 261.339 19.0048 260.818 19.2612C259.899 19.7171 258.812 19.019 258.107 18.2924C257.403 17.5659 256.668 16.6968 255.626 16.6968C254.585 16.6968 253.926 17.4804 253.206 18.1215C252.486 18.7626 251.322 19.1757 250.603 18.5631C250.433 18.3882 250.304 18.1831 250.222 17.9602C250.141 17.7374 250.108 17.5014 250.128 17.2667C250.152 16.1939 250.567 15.1604 251.304 14.3349C252.041 13.5095 253.057 12.941 254.187 12.7221C253.805 11.4954 253.821 10.1912 254.233 8.97318C254.646 7.75513 255.436 6.67748 256.504 5.87548C257.572 5.07349 258.872 4.58288 260.239 4.46523C261.606 4.34759 262.98 4.60814 264.188 5.2142C264.481 4.19514 265.034 3.25675 265.799 2.47845C266.565 1.70014 267.521 1.10482 268.586 0.74285C269.651 0.380884 270.795 0.262925 271.919 0.39896C273.044 0.534995 274.117 0.92102 275.047 1.52437C275.718 0.835216 276.592 0.344631 277.56 0.113568C278.528 -0.117495 279.548 -0.0788506 280.493 0.2247C281.438 0.528251 282.266 1.08332 282.874 1.82095C283.483 2.55858 283.845 3.44625 283.915 4.37366C284.733 4.28584 285.561 4.39273 286.322 4.6843C287.082 4.97587 287.751 5.44254 288.265 6.04049C288.495 6.3488 288.649 6.70002 288.718 7.06963C288.787 7.43924 288.768 7.81835 288.663 8.18052C288.558 8.54268 288.369 8.87918 288.11 9.16653C287.851 9.45389 287.527 9.68519 287.162 9.84429C287.772 10.192 288.217 10.7412 288.41 11.3818C288.602 12.0224 288.527 12.707 288.2 13.2982C287.872 13.8895 287.317 14.3437 286.644 14.5698C285.972 14.7958 285.232 14.777 284.574 14.5171" fill="#263238"/>
<path d="M280.668 42.198C280.747 42.0444 280.883 41.9229 281.051 41.8561C281.216 41.8406 281.382 41.8867 281.511 41.9843C282.07 42.3319 282.527 42.8054 282.837 43.3607C283.148 43.9161 283.303 44.5354 283.287 45.1613V45.1613C283.247 45.5796 283.093 45.9815 282.839 46.3288C282.585 46.6761 282.24 46.9572 281.837 47.1456C281.433 47.334 280.984 47.4234 280.533 47.4052C280.082 47.387 279.644 47.2619 279.259 47.0418L278.003 46.3437L280.668 42.198Z" fill="#FF9A6C"/>
<path d="M279.979 47.3694C280.34 47.4803 280.723 47.5136 281.1 47.4667C281.477 47.4198 281.837 47.294 282.154 47.0988C282.509 46.9255 282.806 46.6642 283.012 46.3437C283.284 45.9989 283.443 45.5883 283.471 45.1612C283.475 44.2072 283.135 43.2794 282.506 42.5257C282.357 42.3208 282.194 42.1256 282.016 41.9415C281.911 41.8292 281.781 41.7383 281.636 41.6745C281.491 41.6108 281.334 41.5756 281.174 41.5711C281.015 41.5942 280.866 41.6531 280.737 41.7425C280.609 41.8319 280.507 41.9491 280.438 42.084L280.117 42.6396L278.999 44.5629C278.616 45.1399 278.308 45.7567 278.08 46.4007C278.562 45.8953 278.974 45.3353 279.305 44.7339L280.53 42.8676C280.76 42.5399 280.99 42.0128 281.204 42.0413C281.419 42.0698 281.817 42.4402 282.093 42.7963C282.639 43.4788 282.953 44.2973 282.996 45.147C282.977 45.5028 282.856 45.8474 282.644 46.1443C282.486 46.4184 282.254 46.6492 281.97 46.8138C281.357 47.1297 280.678 47.3192 279.979 47.3694V47.3694Z" fill="#263238"/>
<path d="M287.637 9.60211C287.814 9.79681 287.943 10.0254 288.014 10.2716C288.086 10.5178 288.098 10.7756 288.051 11.0268C287.992 11.6219 287.697 12.1754 287.224 12.5796C286.92 12.8303 286.561 13.0163 286.172 13.1245C285.783 13.2328 285.374 13.2608 284.972 13.2065L285.232 12.9928C285.285 13.7796 285.197 14.5691 284.972 15.3292C284.829 15.8414 284.585 16.3245 284.252 16.7538C283.802 17.284 283.186 17.6705 282.488 17.8595C281.791 18.0484 281.048 18.0305 280.362 17.8081C279.823 17.5815 279.339 17.257 278.937 16.8536C278.646 16.5686 278.524 16.3977 278.539 16.3834C278.555 16.3692 278.738 16.4974 279.06 16.7253C279.485 17.0654 279.966 17.3396 280.484 17.5374C280.915 17.6494 281.367 17.6773 281.81 17.6194C282.253 17.5615 282.678 17.4191 283.059 17.2011C283.44 16.983 283.769 16.6941 284.024 16.3523C284.28 16.0106 284.456 15.6235 284.543 15.2152C284.741 14.4941 284.828 13.7508 284.804 13.007V12.7648H285.064C285.408 12.8168 285.759 12.7991 286.095 12.7131C286.431 12.627 286.743 12.4746 287.009 12.2662C287.428 11.9289 287.705 11.4646 287.79 10.9555C287.836 10.4994 287.783 10.0395 287.637 9.60211V9.60211Z" fill="#455A64"/>
<path d="M265.26 3.03449C265.26 3.03449 265.122 3.17696 264.908 3.47613C264.601 3.89677 264.436 4.39263 264.433 4.90078V5.07174L264.265 5.0005C262.706 4.45827 261.025 4.29164 259.379 4.51612C258.29 4.65636 257.246 5.0109 256.316 5.55611C255.326 6.16088 254.536 7.00911 254.033 8.0065C253.632 8.7816 253.408 9.62564 253.375 10.4854C253.37 11.285 253.564 12.0749 253.942 12.7933L254.064 12.9928L253.819 13.064C252.729 13.3953 251.819 14.1046 251.277 15.0443C250.858 15.7829 250.698 16.6244 250.817 17.4519C250.945 18.193 251.237 18.9014 251.675 19.5319C251.675 19.5319 251.491 19.4037 251.246 19.076C250.896 18.6015 250.661 18.062 250.557 17.4946C250.389 16.6069 250.534 15.6926 250.97 14.8875C251.532 13.8503 252.512 13.0617 253.696 12.6936L253.574 12.9785C253.148 12.2074 252.927 11.3524 252.931 10.4854C252.956 9.43442 253.257 8.40513 253.807 7.48665C254.357 6.56817 255.139 5.78817 256.086 5.2142C257.048 4.65382 258.13 4.29415 259.256 4.15996C260.966 3.94476 262.706 4.16128 264.295 4.78681L264.127 4.90078C264.142 4.34749 264.358 3.81523 264.739 3.39066C265.061 3.11997 265.245 3.02025 265.26 3.03449Z" fill="#455A64"/>
</g>
<defs>
<linearGradient id="paint0_linear_26_17" x1="343.464" y1="417.421" x2="330.109" y2="417.289" gradientUnits="userSpaceOnUse">
<stop offset="0.16" stop-color="white"/>
<stop offset="0.52" stop-color="#B3B1D6"/>
<stop offset="0.82" stop-color="#7A77B6"/>
<stop offset="0.97" stop-color="#6460AA"/>
</linearGradient>
<linearGradient id="paint1_linear_26_17" x1="332.621" y1="428.391" x2="327.629" y2="413.247" gradientUnits="userSpaceOnUse">
<stop offset="0.16" stop-color="white"/>
<stop offset="0.52" stop-color="#B3B1D6"/>
<stop offset="0.82" stop-color="#7A77B6"/>
<stop offset="0.97" stop-color="#6460AA"/>
</linearGradient>
<clipPath id="clip0_26_17">
<rect width="437" height="565" fill="white"/>
</clipPath>
</defs>
</svg>
